HIERARCHY
ROOT Hips
{
	OFFSET 0.00000 0.00000 0.00000
	CHANNELS 6 Xposition Yposition Zposition Zrotation Yrotation Xrotation 
	JOINT LHipJoint
	{
		OFFSET 0 0 0
		CHANNELS 3 Zrotation Yrotation Xrotation
		JOINT LeftHip
		{
			OFFSET 1.56857 -1.73443 1.15205
			CHANNELS 3 Zrotation Yrotation Xrotation
			JOINT LeftKnee
			{
				OFFSET 2.39362 -6.57643 0.00000
				CHANNELS 3 Zrotation Yrotation Xrotation
				JOINT LeftAnkle
				{
					OFFSET 2.50952 -6.89485 0.00000
					CHANNELS 3 Zrotation Yrotation Xrotation
					JOINT LeftToe
					{
						OFFSET 0.17171 -0.47178 1.88682
						CHANNELS 3 Zrotation Yrotation Xrotation
						End Site
						{
							OFFSET 0.00000 -0.00000 0.98146
						}
					}
				}
			}
		}
	}
	JOINT RHipJoint
	{
		OFFSET 0 0 0
		CHANNELS 3 Zrotation Yrotation Xrotation
		JOINT RightHip
		{
			OFFSET -1.28153 -1.73443 1.15205
			CHANNELS 3 Zrotation Yrotation Xrotation
			JOINT RightKnee
			{
				OFFSET -2.26861 -6.23296 0.00000
				CHANNELS 3 Zrotation Yrotation Xrotation
				JOINT RightAnkle
				{
					OFFSET -2.54143 -6.98254 0.00000
					CHANNELS 3 Zrotation Yrotation Xrotation
					JOINT RightToe
					{
						OFFSET -0.23309 -0.64041 1.93119
						CHANNELS 3 Zrotation Yrotation Xrotation
						End Site
						{
							OFFSET -0.00000 -0.00000 1.02013
						}
					}
				}
			}
		}
	}
	JOINT lowerback
	{
		OFFSET 0 0 0
		CHANNELS 3 Zrotation Yrotation Xrotation
		JOINT Chest
		{
			OFFSET -0.07096 2.10460 -0.27878
			CHANNELS 3 Zrotation Yrotation Xrotation
			JOINT Chest2
			{
				OFFSET -0.00826 2.13662 -0.08279
				CHANNELS 3 Zrotation Yrotation Xrotation
				JOINT lowerneck
				{
					OFFSET 0 0 0
					CHANNELS 3 Zrotation Yrotation Xrotation
					JOINT Neck
					{
						OFFSET 0.03239 1.77799 0.24435
						CHANNELS 3 Zrotation Yrotation Xrotation
						JOINT Head
						{
							OFFSET 0.01026 1.74194 -0.49664
							CHANNELS 3 Zrotation Yrotation Xrotation
							End Site
							{
								OFFSET 0.00170 1.83057 -0.19653
							}
						}
					}
				}
				JOINT LeftCollar
				{
					OFFSET 0 0 0
					CHANNELS 3 Zrotation Yrotation Xrotation
					JOINT LeftShoulder
					{
						OFFSET 3.19178 1.35907 -0.31412
CHANNELS 3 Zrotation Xrotation Yrotation
						JOINT LeftElbow
						{
OFFSET 0 -4.852470 -0.000000
CHANNELS 3 Zrotation Xrotation Yrotation
							JOINT LeftWrist
							{
OFFSET 0 -3.555840 0.000000
CHANNELS 3 Zrotation Xrotation Yrotation
								JOINT lhand
								{
									OFFSET 0 0 0
CHANNELS 3 Zrotation Xrotation Yrotation
									JOINT LFingers
									{
OFFSET 0 -0.693200 0.000000
CHANNELS 3 Zrotation Xrotation Yrotation
										End Site
										{
OFFSET 0 -0.558880 0.000000
										}
									}
								}
								JOINT LThumb
								{
OFFSET 0 0.000000 0.000000
CHANNELS 3 Zrotation Xrotation Yrotation
									End Site
									{
OFFSET 0 -0.567410 0.567410
									}
								}
							}
						}
					}
				}
				JOINT RightCollar
				{
					OFFSET 0 0 0
					CHANNELS 3 Zrotation Yrotation Xrotation
					JOINT RightShoulder
					{
						OFFSET -3.28999 1.24191 -0.26899
CHANNELS 3 Zrotation Xrotation Yrotation
						JOINT RightElbow
						{
OFFSET 0 -4.644620 0.000000
CHANNELS 3 Zrotation Xrotation Yrotation
							JOINT RightWrist
							{
OFFSET 0 -3.407030 0.000000
CHANNELS 3 Zrotation Xrotation Yrotation
								JOINT rhand
								{
									OFFSET 0 0 0
CHANNELS 3 Zrotation Xrotation Yrotation
									JOINT RFingers
									{
OFFSET 0 -0.619580 0.000000
CHANNELS 3 Zrotation Xrotation Yrotation
										End Site
										{
OFFSET 0 -0.499520 0.000000
										}
									}
								}
								JOINT RThumb
								{
OFFSET 0 0.000000 0.000000
CHANNELS 3 Zrotation Xrotation Yrotation
									End Site
									{
OFFSET 0 -0.507150 0.507150
									}
								}
							}
						}
					}
				}
			}
		}
	}
}
MOTION
Frames: 12
Frame Time: 0.008333333333333333
12.208650 17.302759 -0.492502 416.165154 80.712728 415.465022 0.000000 0.000000 0.000000 -27.929065 -3.844510 2.260778 0.469506 4.393743 12.187408 0.614308 1.707449 -15.520193 0.000106 -0.057737 -0.158674 0.000000 0.000000 0.000000 9.889452 0.890721 -15.846863 -8.366864 -16.382327 53.873137 -0.437430 5.658804 -11.834915 -0.019332 -0.894291 2.458009 -12.251773 2.317025 12.120594 -4.001734 1.799735 4.132084 2.382494 1.006783 -2.612367 4.456456 1.994475 -23.963933 0.341696 1.198547 25.042938 -0.390178 1.084033 12.299213 0.000000 0.000000 0.000000 9.564857 -2.850525 -39.974284 21.384085 -32.272658 6.254348 26.677995 -22.513367 21.154393 0.000000 0.000000 0.000000 -7.125000 0.000000 0.000000 -1.245069 6.568831 -1.094779 0.000000 0.000000 0.000000 -4.307693 2.650195 30.640800 -16.751326 -26.528372 -3.975864 -19.617963 4.633829 25.860947 0.000000 0.000000 0.000000 7.125000 0.000000 0.000000 11.243119 56.855423 -3.295477
12.466805 17.342633 -0.484990 417.587351 80.545517 416.703783 0.000000 0.000000 0.000000 -28.405784 -3.362837 4.117437 0.369857 3.903265 10.805033 0.614609 1.748794 -15.544221 0.000283 0.095592 0.262543 0.000000 0.000000 0.000000 9.666542 1.399404 -16.962109 -7.882286 -16.031005 52.136100 -0.446585 4.891213 -11.902862 -0.056841 -1.526132 4.197895 -12.684445 2.260217 12.207710 -3.957753 1.656499 4.085821 2.683263 0.941026 -2.697697 4.662246 2.141503 -24.210308 0.291755 1.331706 25.390661 -0.416220 1.163923 12.491627 0.000000 0.000000 0.000000 9.969655 -3.966913 -41.887079 22.985125 -34.068464 7.131746 26.258535 -23.526192 21.330355 0.000000 0.000000 0.000000 -7.125000 0.000000 0.000000 -1.530608 6.457244 -1.349327 0.000000 0.000000 0.000000 -5.151551 3.591973 30.261284 -16.163960 -25.741846 -3.717180 -18.705324 3.708592 26.652849 0.000000 0.000000 0.000000 7.125000 0.000000 0.000000 12.619261 57.450969 -3.891114
12.717839 17.369798 -0.477178 419.710217 80.395364 418.751866 0.000000 0.000000 0.000000 -28.854637 -2.848319 5.662646 0.292939 3.476546 9.608880 0.624640 1.543139 -15.566766 0.000043 0.011705 0.032029 0.000000 0.000000 0.000000 9.328404 1.814739 -18.169702 -7.384267 -15.645292 50.310117 -0.465749 4.173767 -12.145436 -0.074215 -1.756103 4.832164 -13.192965 2.139085 12.223909 -3.886768 1.435941 4.070116 3.068927 0.832214 -2.698693 4.601040 2.230556 -24.375544 0.483418 1.414736 25.548955 -0.315428 1.224559 12.587973 0.000000 0.000000 0.000000 10.333921 -5.224100 -43.481967 24.692409 -35.880720 8.111858 25.809543 -24.154998 21.528832 0.000000 0.000000 0.000000 -7.125000 0.000000 0.000000 -1.836669 6.326708 -1.624080 0.000000 0.000000 0.000000 -6.167015 4.674566 30.185338 -15.900179 -25.384938 -3.603156 -17.895792 2.960432 27.126003 0.000000 0.000000 0.000000 7.125000 0.000000 0.000000 13.736088 57.743865 -4.340468
12.969216 17.382194 -0.472073 422.646745 80.176513 421.660314 0.000000 0.000000 0.000000 -29.404364 -2.243682 7.004597 0.233700 3.107430 8.578358 0.643048 1.096774 -15.585906 0.000641 -0.147538 -0.405395 0.000000 0.000000 0.000000 8.777129 2.134551 -19.447104 -6.891864 -15.237658 48.459676 -0.513114 3.741237 -12.771538 -0.040280 -1.269743 3.491737 -13.754527 1.957069 12.190121 -3.851420 1.143810 4.085829 3.458190 0.684182 -2.621393 4.550958 2.337577 -24.539815 0.568608 1.548624 25.624391 -0.248557 1.291016 12.652526 0.000000 0.000000 0.000000 10.807359 -6.570105 -45.024739 26.488002 -37.676458 9.188346 25.711550 -24.915519 21.898466 0.000000 0.000000 0.000000 -7.125000 0.000000 0.000000 -1.941578 5.948022 -1.731089 0.000000 0.000000 0.000000 -7.307222 5.865370 30.427756 -15.886275 -25.366268 -3.597155 -17.387433 2.397325 27.114731 0.000000 0.000000 0.000000 7.125000 0.000000 0.000000 14.264147 57.623033 -4.468625
13.221225 17.382587 -0.467079 425.587778 79.884771 424.599012 0.000000 0.000000 0.000000 -29.974170 -1.635009 8.257086 0.184720 2.763851 7.622151 0.662017 0.588162 -15.598586 0.000204 -0.045030 -0.123663 0.000000 0.000000 0.000000 8.133340 2.462428 -20.678305 -6.387596 -14.790205 46.511651 -0.568030 3.327005 -13.490099 -0.013058 -0.686893 1.887826 -14.338519 1.779624 12.115133 -3.858728 0.864867 4.105091 3.811770 0.541429 -2.512704 4.650582 2.492268 -24.747814 0.495553 1.735261 25.673416 -0.257420 1.371939 12.719505 0.000000 0.000000 0.000000 11.478293 -8.005353 -46.637907 28.294662 -39.374726 10.314470 25.988230 -25.655769 22.226820 0.000000 0.000000 0.000000 -7.125000 0.000000 0.000000 -1.807706 5.543028 -1.625190 0.000000 0.000000 0.000000 -8.466184 7.081839 30.944833 -16.010557 -25.534898 -3.650627 -16.978404 1.984937 26.955148 0.000000 0.000000 0.000000 7.125000 0.000000 0.000000 14.601301 57.378840 -4.490678
13.472321 17.373127 -0.462536 427.717611 79.560597 426.761938 0.000000 0.000000 0.000000 -30.462877 -1.012366 9.458988 0.141736 2.420123 6.668432 0.675010 0.201913 -15.601394 0.000206 0.074933 0.205935 0.000000 0.000000 0.000000 7.500324 2.851136 -21.857668 -5.877924 -14.304542 44.481238 -0.612401 2.932110 -14.073801 -0.004255 -0.413565 1.136235 -14.881706 1.623926 11.973959 -3.877744 0.628501 4.101534 4.123449 0.418861 -2.394479 4.767686 2.626097 -24.820819 0.468958 1.879485 25.612279 -0.260917 1.440883 12.714783 0.000000 0.000000 0.000000 12.250907 -9.374956 -48.064360 30.219991 -41.066758 11.559183 26.360413 -26.122429 22.415216 0.000000 0.000000 0.000000 -7.125000 0.000000 0.000000 -1.598465 5.268837 -1.445325 0.000000 0.000000 0.000000 -9.662670 8.408128 31.745206 -16.270950 -25.886266 -3.763737 -16.654645 1.767479 26.682842 0.000000 0.000000 0.000000 7.125000 0.000000 0.000000 14.783807 57.043754 -4.428177
13.725179 17.353892 -0.462741 429.005381 79.217495 428.065012 0.000000 0.000000 0.000000 -30.907345 -0.328639 10.684983 0.104272 2.074204 5.711046 0.686362 -0.038014 -15.645600 0.000174 0.075212 0.206701 0.000000 0.000000 0.000000 6.861414 3.200174 -23.022344 -5.388741 -13.803886 42.466831 -0.643054 2.689885 -14.470053 -0.006003 -0.490838 1.348727 -15.324702 1.490291 11.805096 -3.873130 0.439344 4.107444 4.397969 0.316411 -2.256356 4.820749 2.765791 -24.755249 0.412054 2.075902 25.479736 -0.258190 1.520993 12.654662 0.000000 0.000000 0.000000 12.945886 -10.647849 -49.212830 32.366735 -42.818696 12.996113 26.579379 -26.680452 22.587017 0.000000 0.000000 0.000000 -7.125000 0.000000 0.000000 -1.483688 5.041201 -1.347992 0.000000 0.000000 0.000000 -11.029819 9.866954 32.879171 -16.702533 -26.462778 -3.954514 -16.637553 1.739859 26.331330 0.000000 0.000000 0.000000 7.125000 0.000000 0.000000 14.605313 56.695943 -4.250566
13.981741 17.325532 -0.468065 430.330628 78.912763 429.378568 0.000000 0.000000 0.000000 -31.310686 0.392523 11.926145 0.073631 1.742335 4.794412 0.704511 -0.383693 -15.737084 0.000330 0.105546 0.290077 0.000000 0.000000 0.000000 6.202189 3.336758 -24.110109 -4.877198 -13.237070 40.275126 -0.646079 2.440305 -14.548060 -0.012409 -0.708375 1.946735 -15.640878 1.344806 11.659065 -3.855459 0.246016 4.121068 4.616564 0.211119 -2.120180 4.884526 2.858989 -24.745460 0.264807 2.225105 25.387415 -0.299581 1.569096 12.621737 0.000000 0.000000 0.000000 13.576626 -11.956101 -50.192566 34.576385 -44.489460 14.521583 26.758030 -27.453110 22.962236 0.000000 0.000000 0.000000 -7.125000 0.000000 0.000000 -1.421329 4.601553 -1.302891 0.000000 0.000000 0.000000 -12.504863 11.438168 34.162917 -17.311927 -27.264751 -4.230503 -16.851200 1.776670 26.029552 0.000000 0.000000 0.000000 7.125000 0.000000 0.000000 14.218809 56.444252 -4.047549
14.239948 17.286569 -0.472801 432.133240 78.704723 431.202257 0.000000 0.000000 0.000000 -31.566484 1.128865 13.096136 0.049918 1.433627 3.943026 0.725830 -0.971094 -15.799984 0.001432 0.227748 0.625862 0.000000 0.000000 0.000000 5.588930 3.295717 -25.068534 -4.311999 -12.553852 37.736853 -0.619323 1.957683 -14.326215 -0.031943 -1.115596 3.067253 -15.844244 1.155917 11.555882 -3.857085 -0.008666 4.080995 4.759787 0.082394 -2.053827 5.020864 2.958334 -24.540656 0.074962 2.381584 25.214711 -0.370705 1.621744 12.521349 0.000000 0.000000 0.000000 14.290389 -13.295816 -51.068314 36.738393 -45.998320 16.056745 27.051385 -28.264890 23.496293 0.000000 0.000000 0.000000 -7.125000 0.000000 0.000000 -1.311206 3.966440 -1.217118 0.000000 0.000000 0.000000 -13.907874 13.141884 35.358621 -18.063116 -28.234450 -4.580851 -16.990547 1.779582 25.820893 0.000000 0.000000 0.000000 7.125000 0.000000 0.000000 13.962812 56.267906 -3.912186
14.497928 17.236238 -0.474523 434.032715 78.512814 433.155978 0.000000 0.000000 0.000000 -31.689102 1.979268 14.149675 0.032535 1.156962 3.180912 0.743212 -1.716011 -15.799799 0.001747 0.266353 0.731835 0.000000 0.000000 0.000000 4.988640 3.233365 -25.924255 -3.737485 -11.791322 35.012552 -0.569258 1.273249 -13.870767 -0.060953 -1.580801 4.348686 -16.062499 0.928482 11.371124 -3.870539 -0.292078 4.075891 4.900277 -0.068109 -1.895905 5.235660 3.111527 -24.394864 -0.167882 2.596671 25.105737 -0.463246 1.701541 12.462569 0.000000 0.000000 0.000000 15.064881 -14.700796 -51.631458 38.957892 -47.423120 17.673165 27.329258 -28.661719 23.892321 0.000000 0.000000 0.000000 -7.125000 0.000000 0.000000 -1.194259 3.482194 -1.119650 0.000000 0.000000 0.000000 -15.273682 14.784735 36.508979 -18.915420 -29.309186 -4.991525 -17.004494 1.723941 25.740681 0.000000 0.000000 0.000000 7.125000 0.000000 0.000000 13.905900 56.191859 -3.869902
14.755473 17.176951 -0.476274 435.916290 78.241817 435.081199 0.000000 0.000000 0.000000 -31.801901 2.984169 15.090491 0.021228 0.936642 2.574528 0.758895 -2.610003 -15.789292 0.000898 0.066334 0.182142 0.000000 0.000000 0.000000 4.292163 3.122688 -26.690990 -3.190873 -10.985111 32.243672 -0.494952 0.578797 -13.091163 -0.082894 -1.855801 5.107320 -16.353901 0.696386 11.170954 -3.883338 -0.577023 4.116404 5.079021 -0.225442 -1.674934 5.341903 3.246999 -24.519110 -0.273354 2.769462 25.159060 -0.488429 1.772883 12.516745 0.000000 0.000000 0.000000 15.780460 -16.107964 -51.798590 41.331944 -48.822142 19.441414 27.516556 -28.384473 24.085794 0.000000 0.000000 0.000000 -7.125000 0.000000 0.000000 -1.106757 3.233998 -1.042618 0.000000 0.000000 0.000000 -16.737568 16.350514 37.758549 -19.878415 -30.489990 -5.472229 -17.000291 1.548496 25.832695 0.000000 0.000000 0.000000 7.125000 0.000000 0.000000 13.959154 56.281515 -3.915774
15.011930 17.109398 -0.477918 438.110449 77.947292 437.316104 0.000000 0.000000 0.000000 -31.902829 3.964573 15.946965 0.014629 0.778359 2.139097 0.773364 -3.669645 -15.789738 0.001190 -0.211349 -0.580806 0.000000 0.000000 0.000000 3.527879 2.878412 -27.340731 -2.655496 -10.099385 29.313483 -0.406399 -0.072106 -12.059165 -0.140309 -2.348491 6.472916 -16.646972 0.459338 11.091665 -3.883962 -0.901108 4.102592 5.274324 -0.392620 -1.568493 5.356481 3.323631 -24.612143 -0.318959 2.880134 25.239324 -0.486905 1.817056 12.571580 0.000000 0.000000 0.000000 16.468199 -17.415163 -51.821994 43.825472 -50.163909 21.337450 27.571472 -27.925424 24.193913 0.000000 0.000000 0.000000 -7.125000 0.000000 0.000000 -1.088435 3.105768 -1.028039 0.000000 0.000000 0.000000 -18.323585 17.987590 39.105174 -20.947551 -31.761297 -6.025023 -16.963463 1.165813 25.921863 0.000000 0.000000 0.000000 7.125000 0.000000 0.000000 14.044462 56.361686 -3.967642
